REM DIRINDEX 1\2,1\3,1\4
REM DIRNAME folder01,folder02,folder03,folder04
TITLE ""
FILE "028 028_TOEFL_3900.mp3" MP3
  TRACK 01 AUDIO
    TITLE "2:cjc151_1196"
    INDEX 01 00:00:00
  TRACK 02 AUDIO
    TITLE "0:"
    INDEX 01 00:01:36
  TRACK 03 AUDIO
    TITLE "3:cjc151_1197"
    INDEX 01 00:03:14
  TRACK 04 AUDIO
    TITLE "0:"
    INDEX 01 00:06:43
  TRACK 05 AUDIO
    TITLE "2:cjc151_1198"
    INDEX 01 00:08:24
  TRACK 06 AUDIO
    TITLE "0:"
    INDEX 01 00:09:44
  TRACK 07 AUDIO
    TITLE "3:cjc151_1199"
    INDEX 01 00:11:23
  TRACK 08 AUDIO
    TITLE "0:"
    INDEX 01 00:16:32
  TRACK 09 AUDIO
    TITLE "2:cjc151_1200"
    INDEX 01 00:18:13
  TRACK 10 AUDIO
    TITLE "0:"
    INDEX 01 00:19:20
  TRACK 11 AUDIO
    TITLE "3:cjc151_1201"
    INDEX 01 00:21:02
  TRACK 12 AUDIO
    TITLE "0:"
    INDEX 01 00:24:31
  TRACK 13 AUDIO
    TITLE "2:cjc151_1202"
    INDEX 01 00:26:09
  TRACK 14 AUDIO
    TITLE "0:"
    INDEX 01 00:27:26
  TRACK 15 AUDIO
    TITLE "3:cjc151_1203"
    INDEX 01 00:29:03
  TRACK 16 AUDIO
    TITLE "0:"
    INDEX 01 00:33:26
  TRACK 17 AUDIO
    TITLE "2:cjc151_1204"
    INDEX 01 00:35:06
  TRACK 18 AUDIO
    TITLE "0:"
    INDEX 01 00:36:05
  TRACK 19 AUDIO
    TITLE "3:cjc151_1205"
    INDEX 01 00:37:61
  TRACK 20 AUDIO
    TITLE "0:"
    INDEX 01 00:41:24
  TRACK 21 AUDIO
    TITLE "2:cjc151_1206"
    INDEX 01 00:43:03
  TRACK 22 AUDIO
    TITLE "0:"
    INDEX 01 00:44:20
  TRACK 23 AUDIO
    TITLE "3:cjc151_1207"
    INDEX 01 00:45:73
  TRACK 24 AUDIO
    TITLE "0:"
    INDEX 01 00:50:19
  TRACK 25 AUDIO
    TITLE "2:cjc151_1208"
    INDEX 01 00:52:00
  TRACK 26 AUDIO
    TITLE "0:"
    INDEX 01 00:53:06
  TRACK 27 AUDIO
    TITLE "3:cjc151_1209"
    INDEX 01 00:54:62
  TRACK 28 AUDIO
    TITLE "0:"
    INDEX 01 00:58:62
  TRACK 29 AUDIO
    TITLE "2:cjc151_1210"
    INDEX 01 01:00:41
  TRACK 30 AUDIO
    TITLE "0:"
    INDEX 01 01:01:40
  TRACK 31 AUDIO
    TITLE "3:cjc151_1211"
    INDEX 01 01:03:22
  TRACK 32 AUDIO
    TITLE "0:"
    INDEX 01 01:06:45
  TRACK 33 AUDIO
    TITLE "2:cjc151_1212"
    INDEX 01 01:08:25
  TRACK 34 AUDIO
    TITLE "0:"
    INDEX 01 01:09:26
  TRACK 35 AUDIO
    TITLE "3:cjc151_1213"
    INDEX 01 01:11:05
  TRACK 36 AUDIO
    TITLE "0:"
    INDEX 01 01:15:07
  TRACK 37 AUDIO
    TITLE "2:cjc151_1214"
    INDEX 01 01:16:61
  TRACK 38 AUDIO
    TITLE "0:"
    INDEX 01 01:17:57
  TRACK 39 AUDIO
    TITLE "3:cjc151_1215"
    INDEX 01 01:19:36
  TRACK 40 AUDIO
    TITLE "0:"
    INDEX 01 01:23:20
  TRACK 41 AUDIO
    TITLE "2:cjc151_1216"
    INDEX 01 01:24:71
  TRACK 42 AUDIO
    TITLE "0:"
    INDEX 01 01:26:07
  TRACK 43 AUDIO
    TITLE "3:cjc151_1217"
    INDEX 01 01:27:61
  TRACK 44 AUDIO
    TITLE "0:"
    INDEX 01 01:31:49
  TRACK 45 AUDIO
    TITLE "2:cjc151_1218"
    INDEX 01 01:33:33
  TRACK 46 AUDIO
    TITLE "0:"
    INDEX 01 01:34:36
  TRACK 47 AUDIO
    TITLE "3:cjc151_1219"
    INDEX 01 01:36:21
  TRACK 48 AUDIO
    TITLE "0:"
    INDEX 01 01:39:74
  TRACK 49 AUDIO
    TITLE "2:cjc151_1220"
    INDEX 01 01:41:56
  TRACK 50 AUDIO
    TITLE "0:"
    INDEX 01 01:42:39
  TRACK 51 AUDIO
    TITLE "3:cjc151_1221"
    INDEX 01 01:44:28
  TRACK 52 AUDIO
    TITLE "0:"
    INDEX 01 01:47:56
  TRACK 53 AUDIO
    TITLE "2:cjc151_1222"
    INDEX 01 01:49:37
  TRACK 54 AUDIO
    TITLE "0:"
    INDEX 01 01:50:68
  TRACK 55 AUDIO
    TITLE "3:cjc151_1223"
    INDEX 01 01:52:48
  TRACK 56 AUDIO
    TITLE "0:"
    INDEX 01 01:56:37
  TRACK 57 AUDIO
    TITLE "2:cjc151_1224"
    INDEX 01 01:58:17
  TRACK 58 AUDIO
    TITLE "0:"
    INDEX 01 01:59:26
  TRACK 59 AUDIO
    TITLE "3:cjc151_1225"
    INDEX 01 02:01:05
  TRACK 60 AUDIO
    TITLE "0:"
    INDEX 01 02:04:45
  TRACK 61 AUDIO
    TITLE "2:cjc151_1226"
    INDEX 01 02:06:24
  TRACK 62 AUDIO
    TITLE "0:"
    INDEX 01 02:07:29
  TRACK 63 AUDIO
    TITLE "3:cjc151_1227"
    INDEX 01 02:09:09
  TRACK 64 AUDIO
    TITLE "0:"
    INDEX 01 02:13:30
  TRACK 65 AUDIO
    TITLE "2:cjc151_1228"
    INDEX 01 02:15:09
  TRACK 66 AUDIO
    TITLE "0:"
    INDEX 01 02:16:15
  TRACK 67 AUDIO
    TITLE "3:cjc151_1229"
    INDEX 01 02:17:69
  TRACK 68 AUDIO
    TITLE "0:"
    INDEX 01 02:22:17
  TRACK 69 AUDIO
    TITLE "2:cjc151_1230"
    INDEX 01 02:23:74
  TRACK 70 AUDIO
    TITLE "0:"
    INDEX 01 02:25:04
  TRACK 71 AUDIO
    TITLE "3:cjc151_1231"
    INDEX 01 02:26:60
  TRACK 72 AUDIO
    TITLE "0:"
    INDEX 01 02:31:20
  TRACK 73 AUDIO
    TITLE "2:cjc151_1232"
    INDEX 01 02:32:74
  TRACK 74 AUDIO
    TITLE "0:"
    INDEX 01 02:34:11
  TRACK 75 AUDIO
    TITLE "3:cjc151_1233"
    INDEX 01 02:35:63
  TRACK 76 AUDIO
    TITLE "0:"
    INDEX 01 02:39:24
  TRACK 77 AUDIO
    TITLE "2:cjc151_1234"
    INDEX 01 02:41:01
  TRACK 78 AUDIO
    TITLE "0:"
    INDEX 01 02:42:18
  TRACK 79 AUDIO
    TITLE "3:cjc151_1235"
    INDEX 01 02:43:72
  TRACK 80 AUDIO
    TITLE "0:"
    INDEX 01 02:48:15
  TRACK 81 AUDIO
    TITLE "2:cjc151_1236"
    INDEX 01 02:49:69
  TRACK 82 AUDIO
    TITLE "0:"
    INDEX 01 02:50:59
  TRACK 83 AUDIO
    TITLE "3:cjc151_1237"
    INDEX 01 02:52:42
  TRACK 84 AUDIO
    TITLE "0:"
    INDEX 01 02:56:32
  TRACK 85 AUDIO
    TITLE "2:cjc151_1238"
    INDEX 01 02:58:13
  TRACK 86 AUDIO
    TITLE "0:"
    INDEX 01 02:59:18
  TRACK 87 AUDIO
    TITLE "3:cjc151_1239"
    INDEX 01 03:00:73
  TRACK 88 AUDIO
    TITLE "0:"
    INDEX 01 03:04:55
